<svg width="25" height="24" viewBox="0 0 25 24" fill="none" xmlns="http://www.w3.org/2000/svg">
<g id="Carbs">
<path id="Vector 127" d="M12.5 4L11.3522 5.91303C10.4498 7.41704 9.99857 8.16905 9.99857 9C9.99857 9.83095 10.4498 10.583 11.3522 12.087L12.0713 13.2854C12.2627 13.6045 12.3585 13.7641 12.5 13.7641C12.6415 13.7641 12.7373 13.6045 12.9287 13.2854L13.6478 12.087C14.5502 10.583 15.0014 9.83095 15.0014 9C15.0014 8.16905 14.5502 7.41704 13.6478 5.91303L12.5 4ZM12.5 4V2" stroke="#33363F" stroke-width="2"/>
<path id="Vector 128" d="M20.66 12.5981L18.4294 12.5606C16.6757 12.5311 15.7988 12.5163 15.0792 12.9318C14.3596 13.3473 13.9339 14.114 13.0826 15.6475L12.4043 16.8695C12.2236 17.1949 12.1333 17.3575 12.2041 17.4801C12.2749 17.6027 12.4609 17.6058 12.833 17.6121L14.2304 17.6356C15.9841 17.6651 16.861 17.6799 17.5806 17.2644C18.3003 16.8489 18.7259 16.0821 19.5772 14.5486L20.66 12.5981ZM20.66 12.5981L22.3921 11.5981" stroke="#33363F" stroke-width="2"/>
<path id="Vector 128_2" d="M4.33996 12.5981L6.5706 12.5606C8.32432 12.5311 9.20118 12.5163 9.9208 12.9318C10.6404 13.3473 11.0661 14.114 11.9174 15.6475L12.5957 16.8695C12.7764 17.1949 12.8667 17.3575 12.7959 17.4801C12.7251 17.6027 12.5391 17.6058 12.167 17.6121L10.7696 17.6356C9.01586 17.6651 8.139 17.6799 7.41937 17.2644C6.69975 16.8489 6.27409 16.0821 5.42278 14.5486L4.33996 12.5981ZM4.33996 12.5981L2.60791 11.5981" stroke="#33363F" stroke-width="2"/>
<path id="Vector 129" d="M12.5 15V22.5" stroke="#33363F" stroke-width="2"/>
</g>
</svg>
