<svg width="24" height="24" viewBox="0 0 24 24" fill="none" xmlns="http://www.w3.org/2000/svg">
    <path d="M19 19.5134V22.2143C19 22.4227 18.9239 22.6225 18.7884 22.7699C18.653 22.9172 18.4693 23 18.2777 23C18.0862 23 17.9025 22.9172 17.7671 22.7699C17.6316 22.6225 17.5555 22.4227 17.5555 22.2143V19.5134C17.5591 18.3451 17.2617 17.1992 16.6972 16.2054C16.1327 15.2116 15.3235 14.4097 14.3615 13.8906L9.9921 11.5148C8.78964 10.866 7.7783 9.86367 7.07271 8.62146C6.36713 7.37925 5.99554 5.94684 6.00004 4.48661V1.78571C6.00004 1.57733 6.07613 1.37748 6.21157 1.23013C6.34702 1.08278 6.53071 1 6.72226 1C6.9138 1 7.0975 1.08278 7.23294 1.23013C7.36839 1.37748 7.44448 1.57733 7.44448 1.78571V4.48661C7.44093 5.65486 7.73828 6.80082 8.3028 7.79462C8.86733 8.78842 9.67646 9.5903 10.6385 10.1094L15.0079 12.4852C16.2104 13.134 17.2217 14.1363 17.9273 15.3785C18.6329 16.6207 19.0045 18.0532 19 19.5134ZM15.3889 19.0714H7.45982C7.49457 18.5362 7.59257 18.008 7.75142 17.5H14.3155C14.507 17.5 14.6907 17.4172 14.8262 17.2699C14.9616 17.1225 15.0377 16.9227 15.0377 16.7143C15.0377 16.5059 14.9616 16.3061 14.8262 16.1587C14.6907 16.0114 14.507 15.9286 14.3155 15.9286H8.47905C8.84147 15.3586 9.28841 14.8581 9.80161 14.4475C9.8782 14.3864 9.94298 14.3095 9.99225 14.2212C10.0415 14.1329 10.0743 14.0349 10.0888 13.9328C10.1033 13.8307 10.0991 13.7265 10.0765 13.6262C10.054 13.5258 10.0135 13.4313 9.95734 13.348C9.90121 13.2647 9.83054 13.1942 9.74937 13.1406C9.6682 13.087 9.57812 13.0513 9.48427 13.0356C9.39042 13.0198 9.29464 13.0244 9.2024 13.0489C9.11017 13.0734 9.02327 13.1175 8.94669 13.1786C8.03438 13.9102 7.29254 14.8645 6.78079 15.9647C6.26903 17.0649 6.00162 18.2803 6.00004 19.5134V22.2143C6.00004 22.4227 6.07613 22.6225 6.21157 22.7699C6.34702 22.9172 6.53071 23 6.72226 23C6.9138 23 7.0975 22.9172 7.23294 22.7699C7.36839 22.6225 7.44448 22.4227 7.44448 22.2143V20.6429H15.3889C15.5804 20.6429 15.7641 20.5601 15.8996 20.4127C16.035 20.2654 16.1111 20.0655 16.1111 19.8571C16.1111 19.6488 16.035 19.4489 15.8996 19.3016C15.7641 19.1542 15.5804 19.0714 15.3889 19.0714ZM18.2777 1C18.0862 1 17.9025 1.08278 17.7671 1.23013C17.6316 1.37748 17.5555 1.57733 17.5555 1.78571V3.35714H9.61113C9.41958 3.35714 9.23589 3.43992 9.10044 3.58727C8.965 3.73462 8.88891 3.93447 8.88891 4.14286C8.88891 4.35124 8.965 4.55109 9.10044 4.69844C9.23589 4.84579 9.41958 4.92857 9.61113 4.92857H17.5402C17.5054 5.46383 17.4074 5.99199 17.2486 6.5H10.6845C10.493 6.5 10.3093 6.58278 10.1738 6.73013C10.0384 6.87748 9.96231 7.07733 9.96231 7.28571C9.96231 7.4941 10.0384 7.69395 10.1738 7.8413C10.3093 7.98865 10.493 8.07143 10.6845 8.07143H16.5209C16.1585 8.6414 15.7116 9.1419 15.1984 9.5525C15.044 9.67584 14.9409 9.86086 14.9118 10.0669C14.8828 10.2729 14.9302 10.483 15.0436 10.651C15.1569 10.819 15.327 10.9312 15.5164 10.9628C15.7057 10.9943 15.8989 10.9428 16.0533 10.8195C16.9654 10.088 17.7071 9.13405 18.2188 8.03422C18.7306 6.93439 18.9981 5.71932 19 4.48661V1.78571C19 1.57733 18.9239 1.37748 18.7884 1.23013C18.653 1.08278 18.4693 1 18.2777 1Z" fill="black" stroke="black" stroke-width="0.5"/>
</svg>