<svg width="24" height="24" viewBox="0 0 24 24" fill="none" xmlns="http://www.w3.org/2000/svg">
    <path d="M23.2356 3.72333C23.2134 3.34279 22.9098 3.03918 22.5293 3.01696C17.6673 2.73516 13.7635 4.21366 12.0859 6.98277C10.9775 8.81351 10.9794 11.0369 12.0709 13.1579C11.4496 13.8974 10.9956 14.7626 10.7399 15.694L9.21158 14.1601C9.94613 12.6262 9.91795 11.0275 9.11764 9.69928C7.87775 7.6525 5.01564 6.55538 1.46219 6.76391C1.08166 6.78613 0.778052 7.08975 0.755825 7.47028C0.546354 11.0237 1.64442 13.8858 3.6912 15.1257C4.36663 15.5384 5.14278 15.7568 5.93429 15.757C6.70256 15.7475 7.45888 15.5655 8.14733 15.2244L10.4956 17.5727V20.2657C10.4963 20.8442 11.1229 21.205 11.6235 20.9152C11.8554 20.781 11.9982 20.5336 11.9985 20.2657V17.4956C11.9952 16.3002 12.402 15.1397 13.1511 14.208C14.1176 14.7131 15.1895 14.9834 16.28 14.997C17.3342 15.0004 18.3689 14.7124 19.2698 14.1648C22.0389 12.4891 23.5212 8.58525 23.2356 3.72333ZM4.46614 13.8407C3.02522 12.9681 2.20989 10.9026 2.22962 8.2424C4.88977 8.21985 6.95533 9.038 7.82797 10.4789C8.28354 11.2304 8.35774 12.1068 8.05903 13.0094L5.76616 10.7166C5.34677 10.3181 4.65335 10.5231 4.51799 11.0855C4.45838 11.3332 4.52832 11.5942 4.70378 11.7789L6.99667 14.0718C6.09398 14.3705 5.21853 14.2963 4.46614 13.8407ZM18.4911 12.8808C17.2324 13.6425 15.753 13.7008 14.2501 13.0686L19.2933 8.02447C19.6917 7.60509 19.4867 6.91166 18.9243 6.77631C18.6766 6.71671 18.4156 6.78664 18.2309 6.9621L13.1868 11.9997C12.5518 10.4968 12.6091 9.01639 13.3746 7.75865C14.6841 5.59821 17.7894 4.394 21.7656 4.487C21.8558 8.4622 20.6534 11.5713 18.4911 12.8808Z" fill="black" stroke="black" stroke-width="0.5"/>
</svg>